<?xml version="1.0" encoding="utf-8"?>
<!-- Generator: Adobe Illustrator 19.2.1, SVG Export Plug-In . SVG Version: 6.00 Build 0)  -->
<svg version="1.1" id="Ebene_1" xmlns="http://www.w3.org/2000/svg" xmlns:xlink="http://www.w3.org/1999/xlink" x="0px" y="0px"
	 width="184.8px" height="180px" viewBox="0 0 184.8 180" style="enable-background:new 0 0 184.8 180;" xml:space="preserve">
<style type="text/css">
	.st0{fill:#DA625C;}
</style>
<g>
	<path class="st0" d="M184.8,90c0-17.1-4.8-33-13.1-46.6l0-0.1c-0.6-1-1.3-2-1.9-3C154.5,17.5,129,2,99.8,0.7l2.6,11.6
		c0.1,0,0.3,0,0.4,0c18,1.7,34.2,9.5,46.5,21.3c5.6,5.4,10.5,11.7,14.3,18.6l0,0c6.3,11.2,9.8,24.1,9.8,37.9c0,7.2-1,14.2-2.8,20.9
		c-0.3,1-0.6,2-0.9,3.1c-0.6,2-1.4,4-2.2,5.9c0,0,0,0.1-0.1,0.1c-0.3,0.8-0.7,1.7-1.1,2.5c-0.1,0.2-0.2,0.4-0.3,0.6
		c-0.1,0.2-0.2,0.4-0.3,0.6l0,0c-0.1,0.2-0.2,0.4-0.3,0.6c-0.1,0.3-0.3,0.5-0.4,0.8c-0.1,0.2-0.2,0.4-0.3,0.7
		c-0.2,0.4-0.4,0.8-0.6,1.2c-0.1,0.2-0.2,0.4-0.4,0.6l0,0c-11.9,21.8-34,37.2-59.9,39.9l0,0c-0.8,0.1-1.6,0.2-2.4,0.2
		c1.2-1.6,6.5-10.5,7.9-12.6c1.6-2.2,2.1-11.5,3.3-11.1c1.2,0.4,11.8-0.4,14.4-0.9c2.6-0.5,7.6-6.3,9.6-7.3c2-1.1,7.9-0.3,11-0.8
		c3.2-0.5,2.4-3.9,1.8-6.1c-0.5-2.2-3.1-3.3-5.9-2.9c-2.8,0.4-6.4,0.7-6,0c0.4-0.7,3-2,5.6-3.4c2.6-1.4,3.8-2.4,3.7-6
		c-0.1-3.7-3-9.8-6.5-14c-3.5-4.2-9.7-6.2-9.7-6.2c-1.4-6.4-4.6-6.9-4.6-6.9c-1.6,1.4-2.2,6.2-2.2,6.2c-1.5-4.4-4.7-6-4.7-6
		c-2,2-2.7,8.3-2.7,8.3s-1.3,0.1-3.7,1.3c-2.4,1.2-10.2,11-14.1,12.6s-12.2-1.6-22,2.4c-9.8,3.9-11,19.6-11,19.6
		c-5-15.5,12.1-23.5,26.6-49.8c0.3-0.6,0.6-1.2,0.9-1.8c0,0-8,10.4-12.4,13.8c0,0,7.2-10.8,11.5-19.3c0-0.1,2.2-16.4-2.6-27.5
		c-1-1.8-2.1-3.6-3.4-5.4c-0.7-0.8-1.1-1.4-1.5-1.9c-0.9-1.2-1.9-2.4-3-3.5c0.1,0.1,5.7,11.5,5.6,17c0,0-6.6-18.3-13-23.8
		c-0.4-0.3-0.8-0.6-1.3-0.9c-0.2-0.2-0.4-0.3-0.6-0.4C59.9,21.8,43.1,18.2,24.5,25c-1.6,0.6-3,1.2-4.4,1.8
		c6.4-1.1,10.3,3.5,10.3,3.5c-8.2-3.8-20,2.6-20.6,2.9c-16.9,14.4-9,35.7,1.7,49.1C6.7,73.2,11,65.3,11,65.3
		C8.6,78,19.2,90.2,19.3,90.2c1.9,1.5,3.7,2.7,5.3,3.4c2,0.9,3.9,1.3,5.6,1.4c8.4-2.5,11.8-21.3,12-17.4c0.3,3.9-4.5,15-4.5,15
		c5.1-3.8,7.2-10.8,7.2-10.8c6.1,7.9,8.2,15.8,8.2,24.1c-0.2,3-0.2,6.2-0.1,9.4c3.9-4.8,6-12.1,6-12.1c-0.3,2.7-3.7,13.6-5.5,19.4
		c0,0-5.4,19.5,1.2,34.1c-1.7-1-3.3-2-4.9-3.2v0.1c-1.5-1-2.9-2.2-4.3-3.3l0-0.2C28.2,135.8,17.1,114.2,17,90
		C12.7,87,9.1,83.2,6.3,79c-0.4,3.5-0.7,7.1-0.7,10.8c0,29.3,14.9,55.9,36.7,72.2l0.1-0.4v0.4c5.2,3.8,10.8,7,16.8,9.7
		c0.6,0.2,1.1,0.5,1.7,0.7c0.2,0.1,0.4,0.2,0.6,0.3c10.5,4.3,21.9,6.7,33.9,6.7c7.9,0,15.6-1,23-3l0,0c23.9-6.4,43.9-22.4,55.5-43.7
		c0.7-1.3,1.3-2.5,2-3.8l0,0C181.6,117.1,184.8,104,184.8,90z"/>
	<path class="st0" d="M91.6,0.7c-1,0-2,0.1-3,0.2c-0.2,0-0.4,0-0.7,0C69.5,2.3,52.7,9.5,39.1,20.5c2.6-0.4,5.3-0.7,8.1-0.7
		c4,0,7.8,0.5,11.4,1.3c4.7-2.5,9.7-4.6,15-6.1c5.1-1.5,10.5-2.5,16-2.9c0.1,0,0.2,0,0.3,0c0.8-0.1,1.5-0.1,2.3-0.1
		c0.2,0,0.3,0,0.5,0c0.9,0,1.8,0,2.7,0c1.2,0,2.4,0,3.6,0.1c0.1,0,0.2,0,0.3,0c0.9,0,2.2,0.1,3.1,0.2L99.8,0.7
		c-1.5-0.1-2.9-0.1-4.4-0.1C94.1,0.5,92.9,0.5,91.6,0.7z"/>
</g>
</svg>
