<svg xmlns="http://www.w3.org/2000/svg" width="500" height="500"><rect fill="#FBA919" width="500" height="500"/><path fill="#fff" d="M86.1 114.1c6.8 2.2 12.2 6.3 16.4 12.2 3.4 4.8 5.7 10 6.9 15.6 1.2 5.6 1.8 10.9 1.8 16 0 12.8-2.6 23.7-7.7 32.6-7 12-17.8 18-32.3 18h-41.6v-96.5h41.6c5.9.1 10.9.8 14.9 2.1zm-37 14.7v62.9h18.6c9.5 0 16.2-4.7 19.9-14.1 2.1-5.1 3.1-11.3 3.1-18.4 0-9.8-1.5-17.3-4.6-22.6-3.1-5.3-9.2-7.9-18.4-7.9h-18.6z"/><path fill="#fff" d="M171.3 138.6c5 2.2 9.1 5.7 12.3 10.6 2.9 4.2 4.8 9.2 5.7 14.7.5 3.3.7 8 .6 14.2h-51.9c.3 7.2 2.8 12.2 7.5 15 2.8 1.8 6.3 2.7 10.3 2.7 4.2 0 7.7-1.1 10.4-3.3 1.4-1.2 2.7-2.8 3.8-4.9h19c-.5 4.2-2.8 8.5-6.9 12.9-6.4 6.9-15.3 10.4-26.8 10.4-9.5 0-17.9-2.9-25.1-8.8-7.3-5.9-10.9-15.4-10.9-28.6 0-12.4 3.3-21.8 9.8-28.4 6.5-6.6 15.1-9.9 25.5-9.9 6.1.1 11.7 1.2 16.7 3.4zm-27.9 16.1c-2.6 2.7-4.3 6.4-5 11h32.1c-.3-5-2-8.7-5-11.3-3-2.6-6.7-3.8-11.1-3.8-4.7 0-8.4 1.4-11 4.1z"/><path fill="#fff" d="M243.3 137.2h20l-25.8 71.3h-19.7l-25.6-71.3h20.9l14.9 52.6 15.3-52.6z"/><path fill="#fff" d="M288.3 185.7c.4 3.3 1.2 5.7 2.6 7.1 2.3 2.5 6.6 3.7 12.9 3.7 3.7 0 6.6-.5 8.8-1.6 2.2-1.1 3.3-2.7 3.3-4.9 0-2.1-.9-3.7-2.6-4.8-1.7-1.1-8.3-3-19.5-5.6-8.1-2-13.8-4.5-17.1-7.5-3.3-3-5-7.2-5-12.8 0-6.6 2.6-12.2 7.8-17 5.2-4.7 12.5-7.1 21.9-7.1 8.9 0 16.2 1.8 21.8 5.3 5.6 3.6 8.8 9.7 9.7 18.4h-18.9c-.3-2.4-.9-4.3-2-5.7-2.1-2.5-5.6-3.8-10.5-3.8-4.1 0-7 .6-8.7 1.9-1.7 1.3-2.6 2.7-2.6 4.4 0 2.1.9 3.7 2.8 4.6 1.8 1 8.3 2.7 19.5 5.2 7.4 1.7 13 4.4 16.7 7.9 3.7 3.6 5.5 8 5.5 13.4 0 7.1-2.6 12.8-7.9 17.3-5.3 4.5-13.4 6.7-24.4 6.7-11.2 0-19.5-2.4-24.9-7.1-5.4-4.7-8-10.8-8-18.1h18.8z"/><path fill="#fff" d="M93.5 272.8h29v96.4h-18.8v-65.2c0-1.9 0-4.5.1-7.9 0-3.4.1-6 .1-7.8l-18.3 80.9h-19.6l-18.1-80.9c0 1.8 0 4.4.1 7.8 0 3.4.1 6 .1 7.9v65.2h-18.9v-96.4h29.3l17.6 75.8 17.4-75.8z"/><path fill="#fff" d="M186.2 299.4c5 2.2 9.1 5.7 12.3 10.6 2.9 4.2 4.8 9.2 5.7 14.7.5 3.3.7 8 .6 14.2h-51.9c.3 7.2 2.8 12.2 7.5 15 2.8 1.8 6.3 2.7 10.3 2.7 4.2 0 7.7-1.1 10.4-3.3 1.4-1.2 2.7-2.8 3.8-4.9h19c-.5 4.2-2.8 8.5-6.9 12.9-6.4 6.9-15.3 10.4-26.8 10.4-9.5 0-17.9-2.9-25.1-8.8-7.3-5.9-10.9-15.4-10.9-28.6 0-12.4 3.3-21.8 9.8-28.4 6.5-6.6 15.1-9.9 25.5-9.9 6.1.1 11.7 1.2 16.7 3.4zm-27.9 16.1c-2.6 2.7-4.3 6.4-5 11h32.1c-.3-5-2-8.7-5-11.3-3-2.6-6.7-3.8-11.1-3.8-4.7 0-8.4 1.4-11 4.1z"/><path fill="#fff" d="M260.7 299.4c5 2.2 9.1 5.7 12.3 10.6 2.9 4.2 4.8 9.2 5.7 14.7.5 3.3.7 8 .6 14.2h-51.9c.3 7.2 2.8 12.2 7.5 15 2.8 1.8 6.3 2.7 10.3 2.7 4.2 0 7.7-1.1 10.4-3.3 1.4-1.2 2.7-2.8 3.8-4.9h19c-.5 4.2-2.8 8.5-6.9 12.9-6.4 6.9-15.3 10.4-26.8 10.4-9.5 0-17.9-2.9-25.1-8.8-7.3-5.9-10.9-15.4-10.9-28.6 0-12.4 3.3-21.8 9.8-28.4 6.5-6.6 15.1-9.9 25.5-9.9 6.1.1 11.7 1.2 16.7 3.4zm-27.9 16.1c-2.6 2.7-4.3 6.4-5 11h32.1c-.3-5-2-8.7-5-11.3-3-2.6-6.7-3.8-11.1-3.8-4.7 0-8.4 1.4-11 4.1z"/><path fill="#fff" d="M281.4 311.9v-13.3h9.9v-19.9h18.5v19.9h11.6v13.3h-11.6v37.7c0 2.9.4 4.7 1.1 5.5.7.7 3 1.1 6.8 1.1h1.8l1.9-.1v13.9l-8.8.3c-8.8.3-14.8-1.2-18.1-4.6-2.1-2.1-3.1-5.4-3.1-9.9v-43.9h-10z"/><path fill="#fff" d="M351.9 298v43c0 4.1.5 7.1 1.4 9.2 1.7 3.6 5 5.4 10 5.4 6.3 0 10.7-2.6 13-7.7 1.2-2.8 1.8-6.5 1.8-11.1v-38.8h18.9v71.3h-18v-10.1c-.2.2-.6.9-1.3 2-.7 1.1-1.5 2.1-2.5 2.9-2.9 2.6-5.7 4.4-8.5 5.4s-5.9 1.4-9.6 1.4c-10.5 0-17.6-3.8-21.3-11.4-2-4.2-3.1-10.4-3.1-18.5v-43h19.2z"/><path fill="#fff" d="M475.2 305.6c5.8 6.2 8.7 15.2 8.7 27.1 0 12.6-2.8 22.1-8.5 28.7-5.7 6.6-13 9.9-22 9.9-5.7 0-10.4-1.4-14.2-4.3-2.1-1.6-4.1-3.9-6.1-6.9v37.2h-18.5v-99.3h17.9v10.5c2-3.1 4.2-5.5 6.5-7.3 4.2-3.2 9.1-4.8 14.9-4.8 8.4 0 15.5 3.1 21.3 9.2zm-14.3 13.4c-2.5-4.2-6.6-6.3-12.3-6.3-6.8 0-11.5 3.2-14.1 9.6-1.3 3.4-2 7.7-2 13 0 8.3 2.2 14.1 6.7 17.5 2.6 2 5.8 2.9 9.4 2.9 5.2 0 9.2-2 12-6 2.8-4 4.1-9.4 4.1-16 0-5.6-1.3-10.4-3.8-14.7z"/></svg>