<svg xmlns="http://www.w3.org/2000/svg" viewBox="0 0 165.378 170.587"><defs><style>.cls-1{fill:#fdc944}.cls-2{fill:#cdd500}</style></defs><g id="Logo"><path id="Pfad_16" data-name="Pfad 16" class="cls-1" d="M148.519 68.835a20.384 20.384 0 1 0 32.848 0 52.542 52.542 0 0 1-32.848 0z" transform="translate(-73.779 69.331)"/><path id="Pfad_17" data-name="Pfad 17" class="cls-2" d="M152.433 79.729a52.429 52.429 0 0 1 2.17-45.953 29.659 29.659 0 1 0-7.433 53.689 19.319 19.319 0 0 1 5.263-7.736z" transform="translate(-109.296 29.521)"/><path id="Pfad_18" data-name="Pfad 18" class="cls-1" d="M142.729 43.172A11.1 11.1 0 1 0 134 38.894a11.074 11.074 0 0 0 8.729 4.278z" transform="translate(-86.774 21.18)"/><path id="Pfad_19" data-name="Pfad 19" class="cls-2" d="M179.309 54.645a13.972 13.972 0 1 0 10.241 4.508 13.933 13.933 0 0 0-10.241-4.508z" transform="translate(-52.811 55.039)"/><path id="Pfad_20" data-name="Pfad 20" class="cls-2" d="M166.833 52.553A36.56 36.56 0 0 1 193.6 20.732a26.294 26.294 0 1 0-26.772 31.82z" transform="translate(-76.743)"/><path id="Pfad_21" data-name="Pfad 21" class="cls-2" d="M194.854 38.315a36.465 36.465 0 0 1-15.114 12.507 12.009 12.009 0 1 0 15.114-12.507z" transform="translate(-38.344 38.591)"/><circle id="Ellipse_1" data-name="Ellipse 1" class="cls-1" cx="21.682" cy="21.682" r="21.682" transform="translate(104.816 31.597)"/><path id="Pfad_24" data-name="Pfad 24" d="M160.071 40.337a9.281 9.281 0 0 0-9.281 9.279 9.406 9.406 0 0 0 8.279 9.18h2a9.256 9.256 0 0 0-1-18.459z" transform="translate(-69.217 38.923)" fill="#bfc9d0"/><path id="Pfad_22" data-name="Pfad 22" d="M183.549 39.185a23.856 23.856 0 1 0 6.883 19.072 23.773 23.773 0 0 0-6.883-19.072zm-10 19.2a7.519 7.519 0 0 1-6.357 5.189h-1.634a7.649 7.649 0 1 1 7.991-5.189z" transform="translate(-75.519 32.44)" fill="#667a85"/><path id="Pfad_23" data-name="Pfad 23" class="cls-1" d="M146.844 51.984a19.25 19.25 0 1 0 19.271 19.273 19.171 19.171 0 0 0-19.271-19.273z" transform="translate(-90.889 52.359)"/></g></svg>