<svg xmlns="http://www.w3.org/2000/svg" xmlns:xlink="http://www.w3.org/1999/xlink" overflow="inherit" version="1.2" viewBox="0 0 4500 1000">
<style>.b{fill:#26a9e0}.g{fill:#717073}</style>
<def><path id="e" d="m 817 547 v 47 c 0 60 36 100 96 100 c 34 0 65 -10 95 -23 c 4 -2 8 -3 12 -3 c 16 0 28 12 28 27 c 0 11 -6 20 -16 25 c -38 18 -78 27 -120 27 c -92 0 -153 -62 -153 -153 v -130 c 0 -91 61 -153 153 -153 c 91 0 152 62 152 153 v 44 c 0 22 -18 39 -39 39 h -203 v 0 Z m 192 -87 c 0 -60 -36 -96 -95 -96 c -60 0 -96 36 -96 96 v 34 h 192 v -34 Z"/></def>
<path class="g" d="m 2770 426 c 0 -70 49 -115 110 -115 c 20 0 40 3 60 7 c 13 3 23 15 23 28 c 0 15 -13 27 -28 27 c -4 0 -9 -2 -14 -2 c -14 -3 -26 -4 -40 -4 c -29 0 -53 22 -53 58 v 294 c 0 16 -13 28 -29 28 s -28 -13 -28 -28 v -292 h 0 Z m -710 167 v -129 c 0 -93 60 -153 152 -153 c 34 0 67 9 96 25 v -163 c 0 -16 13 -28 28 -28 c 16 0 29 13 29 28 v 516 c 0 17 -11 32 -27 37 c -40 13 -82 21 -126 21 c -91 0 -152 -62 -152 -153 Z m 57 4 c 0 60 36 96 95 96 c 34 0 66 -5 96 -14 v -282 c -26 -24 -60 -33 -96 -33 c -59 0 -95 36 -95 96 v 138 Z m -170 -257 c 0 -15 13 -28 28 -28 c 16 0 29 13 29 28 v 349 c 0 17 -11 32 -26 37 c -40 13 -83 21 -126 21 c -95 0 -153 -60 -153 -153 v -254 c 0 -15 13 -28 28 -28 c 16 0 29 13 29 28 v 258 c 0 60 36 96 96 96 c 33 0 65 -5 95 -14 l 0 -340 Z m -200 -158 c 0 -21 17 -38 38 -38 c 21 0 38 17 38 38 s -17 38 -38 38 c -21 0 -38 -18 -38 -38 Z m 130 0 c 0 -21 17 -38 38 -38 s 38 17 38 38 s -17 38 -38 38 c -21 0 -38 -18 -38 -38 Z m -407 245 c 0 -70 49 -115 110 -115 c 20 0 40 3 60 7 c 13 3 23 15 23 28 c 0 15 -13 27 -28 27 c -4 0 -9 -2 -14 -2 c -13 -3 -26 -4 -40 -4 c -29 0 -53 22 -53 58 v 294 c 0 16 -13 28 -29 28 s -28 -13 -28 -28 v -293 h 0 Z m -333 299 c -16 -5 -27 -20 -27 -37 v -516 c 0 -16 13 -28 29 -28 s 28 13 28 28 v 164 c 29 -16 62 -25 96 -25 c 93 0 152 60 152 153 v 129 c 0 91 -61 153 -152 153 c -44 0 -86 -8 -126 -21 Z m 222 -266 c 0 -60 -36 -96 -95 -96 c -36 0 -70 9 -96 33 v 282 c 30 9 63 14 96 14 c 59 0 95 -36 95 -96 v -137 Z m -706 257 c -29 20 -62 29 -95 29 c -92 0 -153 -62 -153 -153 v -129 c 0 -91 61 -153 153 -153 c 44 0 86 7 126 21 c 16 6 27 20 27 37 v 403 c 0 92 -61 153 -152 153 c -41 0 -80 -9 -116 -25 c -10 -4 -17 -14 -17 -25 c 0 -15 12 -28 28 -28 c 4 0 7 1 11 3 c 29 13 62 23 95 23 c 59 0 95 -40 95 -100 v -55 h 0 Z m 0 -339 c -30 -9 -63 -14 -95 -14 c -60 0 -96 36 -96 96 v 138 c 0 60 36 96 96 96 c 35 0 70 -13 95 -38 v -278 Z"/>
<path class="b" d="m 4230 738 c -18 0 -34 -15 -34 -33 c 0 -7 2 -14 6 -20 l 224 -311 h -199 c -16 0 -29 -11 -29 -27 c 0 -16 13 -28 29 -28 h 238 c 19 0 34 15 34 34 c 0 7 -2 13 -6 19 l -230 312 h 210 c 16 0 29 12 29 27 c 0 16 -13 28 -29 28 h -244 v 0 Z m -240 -565 c 0 -16 13 -28 28 -28 c 16 0 29 13 29 28 v 147 h 96 c 15 0 28 12 28 28 c 0 16 -13 27 -28 27 h -96 v 260 c 0 36 23 58 53 58 c 13 0 36 -3 44 -3 c 12 0 27 10 27 27 c 0 13 -9 25 -23 28 c -16 2 -32 4 -48 4 c -60 0 -110 -47 -110 -114 l 0 -459 Z m -189 9 c 0 -21 17 -38 38 -38 s 38 17 38 38 s -17 38 -38 38 c -21 0 -38 -18 -38 -38 Z m 9 158 c 0 -15 13 -28 28 -28 s 29 13 29 28 v 378 c 0 16 -13 28 -29 28 s -28 -13 -28 -28 v -378 Z m -524 120 c 0 -60 -36 -96 -95 -96 c -36 0 -70 13 -96 38 v 317 c 0 16 -13 28 -28 28 c -16 0 -29 -13 -29 -28 v -546 c 0 -16 13 -28 29 -28 s 28 13 28 28 v 164 c 29 -16 62 -25 96 -25 c 91 0 152 62 152 153 v 254 c 0 16 -13 28 -29 28 s -28 -13 -28 -28 l 0 -258 Z m -3070 -298 c 8 -34 69 -14 52 19 c -72 186 -152 387 -220 554 c -16 27 -63 0 -50 -28 c 73 -181 145 -363 218 -545 Z"/>
<use xlink:href="#e" class="g" height="1000" width="4500" y="0" x="0"/><use xlink:href="#e" class="g" transform="translate(1.65e3)" height="1000" width="4500" y="0" x="0"/><use xlink:href="#e" transform="translate(2.66e3)" class="b" height="1000" width="4500" y="0" x="0"/></svg>
